{"title":"Aashiqui 2 2013 Hindi Movies DvDScr Sample Included Best Quality","uid":8422345,"size":727641214,"categoryP":"video","categoryS":"movies","magnet":"?xt=urn:btih:e8a91cfda6b708e3d01b7d68c21c5d6e97fd648b&amp;dn=Aashiqui+2+2013+Hindi+Movies+DvDScr+Sample+Included+Best+Quality&amp;tr=udp%3A%2F%2Ftracker.openbittorrent.com%3A80&amp;tr=udp%3A%2F%2Fopen.demonii.com%3A1337&amp;tr=udp%3A%2F%2Ftracker.coppersurfer.tk%3A6969&amp;tr=udp%3A%2F%2Fexodus.desync.com%3A6969","seeders":0,"leechers":0,"uploader":"basicssom","files":2,"time":1367193864,"description":"Aashiqui 2 2013 Hindi Movies DvDScr Sample Included Best Quality ~ rDX\n\nScreen Shots :\n &lt;a href=&quot;\nhttp://myimghosting.serveftp.com/13/Aashiqui2.html&quot; rel=&quot;nofollow&quot; target=&quot;_NEW&quot;&gt;\nhttp://myimghosting.serveftp.com/13/Aashiqui2.html&lt;/a&gt;\n &lt;a href=&quot;\nhttp://myimghost.cwahi.net/Aashiqui2.html&quot; rel=&quot;nofollow&quot; target=&quot;_NEW&quot;&gt;\nhttp://myimghost.cwahi.net/Aashiqui2.html&lt;/a&gt;\n\n\nFormat                                   : AVI\nFormat/Info                              : Audio Video Interleave\nFile size                                : 677 MiB\nDuration                                 : 2h 9mn\nOverall bit rate                         : 730 Kbps\nWriting library                          : MPlayer\n\nVideo\nID                                       : 0\nFormat                                   : MPEG-4 Visual\nFormat profile                           : Advanced Simple@L5\nFormat settings, BVOP                    : 1\nFormat settings, QPel                    : No\nFormat settings, GMC                     : No warppoints\nFormat settings, Matrix                  : Default (H.263)\nCodec ID                                 : XVID\nCodec ID/Hint                            : XviD\nDuration                                 : 2h 9mn\nBit rate                                 : 645 Kbps\nWidth                                    : 656 pixels\nHeight                                   : 240 pixels\nDisplay aspect ratio                     : 2.733\nFrame rate                               : 25.000 fps\nColor space                              : YUV\nChroma subsampling                       : 4:2:0\nBit depth                                : 8 bits\nScan type                                : Progressive\nCompression mode                         : Lossy\nBits/(Pixel*Frame)                       : 0.164\nStream size                              : 598 MiB (88%)\nWriting library                          : XviD 1.2.1 (UTC 2008-12-04)\n\nAudio\nID                                       : 1\nFormat                                   : MPEG Audio\nFormat version                           : Version 1\nFormat profile                           : Layer 3\nMode                                     : Joint stereo\nMode extension                           : MS Stereo\nCodec ID                                 : 55\nCodec ID/Hint                            : MP3\nDuration                                 : 2h 9mn\nBit rate mode                            : Constant\nBit rate                                 : 80.0 Kbps\nChannel(s)                               : 2 channels\nSampling rate                            : 32.0 KHz\nCompression mode                         : Lossy\nStream size                              : 74.2 MiB (11%)\nAlignment                                : Aligned on interleaves\nInterleave, duration                     : 468 ms (11.70 video frames)\nInterleave, preload duration             : 936 ms","torrent":{"xt":"urn:btih:e8a91cfda6b708e3d01b7d68c21c5d6e97fd648b","amp;dn":"Aashiqui+2+2013+Hindi+Movies+DvDScr+Sample+Included+Best+Quality","amp;tr":["udp%3A%2F%2Ftracker.openbittorrent.com%3A80","udp%3A%2F%2Fopen.demonii.com%3A1337","udp%3A%2F%2Ftracker.coppersurfer.tk%3A6969","udp%3A%2F%2Fexodus.desync.com%3A6969"],"infoHash":"e8a91cfda6b708e3d01b7d68c21c5d6e97fd648b","infoHashBuffer":{"type":"Buffer","data":[232,169,28,253,166,183,8,227,208,27,125,104,194,28,93,110,151,253,100,139]},"announce":[],"urlList":[]}}